<svg xmlns="http://www.w3.org/2000/svg" xmlns:xlink="http://www.w3.org/1999/xlink" width="105.841" height="17.233" viewBox="0 0 105.841 17.233"><defs><clipPath id="a"><rect width="105.841" height="17.233" transform="translate(0 0)" fill="#5726cb"/></clipPath></defs><g transform="translate(0 0)"><g clip-path="url(#a)"><path d="M12.961,8.593c-1.08,3.048-2.041,5.856-3.048,8.641a13.581,13.581,0,0,0-2.233-.168,14.259,14.259,0,0,0-2.088.12C4.7,14.186.72,1.8,0,.12,1.392.193,1.536.193,2.76.193A24.216,24.216,0,0,0,6,0c.264,1.08,1.56,5.473,3.121,10.177,1.055-3.145,2.5-7.824,3.024-10.057a10.542,10.542,0,0,0,1.392.073c.768,0,1.608-.049,2.112-.1.264,1.08,1.56,5.4,3.12,10.081A94.433,94.433,0,0,0,21.794.12a18.063,18.063,0,0,0,2.4.12A14.2,14.2,0,0,0,26.21.12c-2.88,6.912-4.657,11.738-6.673,17.09a17.1,17.1,0,0,0-2.136-.144,11.222,11.222,0,0,0-1.776.12c-.432-1.441-1.536-5.04-2.664-8.593" fill="#5726cb"/><path d="M36.025,13.441c-.936-.024-2.4-.024-3.192-.024-.552,0-1.824,0-2.688.024-.481,1.488-.888,2.832-1.1,3.624a25.077,25.077,0,0,0-2.592-.12,21.617,21.617,0,0,0-2.832.12c2.376-4.824,5.856-13.273,7.2-16.945.864.023,2.424.023,2.472.023A27.758,27.758,0,0,0,37.345,0c1.3,4.392,4.584,14.4,5.593,17.065-.816-.048-1.633-.072-2.377-.072a28.05,28.05,0,0,0-3.384.192c-.384-1.224-.744-2.472-1.152-3.744M33.073,4.824c-.312.769-.96,2.641-1.656,4.729.528.024,1.032.024,1.584.024.576,0,1.176,0,1.776-.024-.552-1.632-1.128-3.216-1.7-4.729" fill="#5726cb"/><path d="M50.377,17.161a26.152,26.152,0,0,0-3.384-.216c-.745,0-1.56.025-2.569.12.144-2.232.264-5.328.264-7.824,0-3.145,0-6.409-.264-9.169.744.071,2.545.1,3.385.1,1.9,0,3.768-.12,5.256-.12,3.672,0,5.184.744,5.184,5.041,0,4.656-1.775,7.224-5.928,7.224A9.162,9.162,0,0,1,49.9,12a30.97,30.97,0,0,0,.48,5.16m-.5-8.544a3.027,3.027,0,0,0,1.032.168c1.152,0,2.232-.841,2.232-2.784,0-1.465-.6-2.3-1.944-2.3a4.4,4.4,0,0,0-1.248.216c-.048,2.112-.072,2.9-.072,4.7" fill="#5726cb"/><path d="M70.489,16.993c-2.256-.071-1.824-.1-3.912-.1-4.7,0-4.273.12-6.24.193.119-2.233.168-2.785.168-8.066A75.239,75.239,0,0,0,60.144.216c1.176.072,2.3.072,3.433.072.983,0,1.824,0,2.952-.1A93.859,93.859,0,0,0,66.144,9.6c0,1.513.025,1.945.049,3.409a38.066,38.066,0,0,0,4.656-.168Z" fill="#5726cb"/><path d="M82.992,13.441c-.935-.024-2.4-.024-3.192-.024-.552,0-1.824,0-2.688.024-.48,1.488-.888,2.832-1.1,3.624a25.1,25.1,0,0,0-2.592-.12,21.632,21.632,0,0,0-2.833.12C72.96,12.241,76.439,3.792,77.784.12c.864.023,2.424.023,2.472.023A27.758,27.758,0,0,0,84.312,0c1.3,4.392,4.584,14.4,5.593,17.065-.816-.048-1.633-.072-2.377-.072a28.075,28.075,0,0,0-3.384.192c-.383-1.224-.744-2.472-1.152-3.744M80.04,4.824c-.312.769-.96,2.641-1.656,4.729.528.024,1.032.024,1.584.024.576,0,1.176,0,1.776-.024-.552-1.632-1.128-3.216-1.7-4.729" fill="#5726cb"/><path d="M96.265,16.945c-.984,0-1.8.024-2.521.1.193-2.64.264-5.88.264-6.792C93.025,8.377,90.024,3.48,87.936.143c1.608.12,2.017.12,4.057.12a16.986,16.986,0,0,0,2.736-.12c.792,1.777,1.2,2.473,3.312,6.314A61.215,61.215,0,0,0,100.969.143c.528.049,1.632.12,2.376.12a22.531,22.531,0,0,0,2.5-.12c-2.664,3.841-4.128,6.913-6.048,10.058-.024.479-.024,1.151-.024,1.752,0,1.7.1,3.024.288,5.232a22.366,22.366,0,0,0-3.792-.24" fill="#5726cb"/></g></g></svg>