<svg xmlns="http://www.w3.org/2000/svg" width="16.5" height="17.619" viewBox="0 0 16.5 17.619"><g transform="translate(0.251 0.25)"><path d="M298.626,434.145a5.592,5.592,0,0,1,4.653,4.782c.153.887.087,1.812.158,2.716a5.517,5.517,0,0,0,1.614,3.492,1.685,1.685,0,0,1,.5,1.889,1.58,1.58,0,0,1-1.643,1.014q-3.135,0-6.271,0c-2.074,0-4.149.008-6.223,0-1.1-.006-1.836-.688-1.739-1.668a1.913,1.913,0,0,1,.468-1.071,6.178,6.178,0,0,0,1.8-4.521,7.2,7.2,0,0,1,.665-3.64,5.586,5.586,0,0,1,3.988-2.973,4.268,4.268,0,0,1,1.071-.073A3.9,3.9,0,0,1,298.626,434.145ZM297.6,446.922c2.09,0,4.179.009,6.269-.013a.791.791,0,0,0,.621-.292.9.9,0,0,0-.181-.679c-.265-.4-.611-.748-.882-1.147a8.214,8.214,0,0,1-1.159-4.883,4.649,4.649,0,0,0-3.893-4.7,4.525,4.525,0,0,0-5.171,3.376,10.661,10.661,0,0,0-.205,2.359,7.345,7.345,0,0,1-1.492,4.379c-.216.281-.46.54-.665.828a.446.446,0,0,0,.3.755,2.4,2.4,0,0,0,.477.021Z" transform="translate(-289.667 -434.088)" stroke="#000" stroke-width="0.5"/><path d="M352.76,591.662a2.042,2.042,0,0,1-1.9-1.284c-.115-.29-.121-.56.2-.721a.446.446,0,0,1,.672.293,1.116,1.116,0,0,0,2.073.005.455.455,0,0,1,.669-.3c.353.166.333.44.209.747A2.051,2.051,0,0,1,352.76,591.662Z" transform="translate(-344.779 -574.544)" stroke="#000" stroke-width="0.5"/></g></svg>