<svg xmlns="http://www.w3.org/2000/svg" width="18.713" height="16" viewBox="0 0 18.713 16"><path d="M357.767,236.787H344.261c-.149,0-.3,0-.447,0-.7-.028-1.132-.409-1.118-.983.015-.6.4-.923,1.15-.924q6.6,0,13.2,0c.255,0,.509-.023.906-.043-.552-.545-1-1-1.465-1.444q-1.957-1.876-3.921-3.745c-.553-.529-.618-1.127-.181-1.562.406-.4.984-.34,1.531.18q3.463,3.294,6.923,6.591c.759.724.762,1.2.006,1.917q-3.5,3.338-7,6.665c-.651.616-1.437.469-1.693-.291a1.034,1.034,0,0,1,.387-1.141q2.329-2.215,4.662-4.426c.215-.2.465-.369.7-.552Z" transform="translate(361.408 243.819) rotate(180)"/></svg>