<svg xmlns="http://www.w3.org/2000/svg" xmlns:xlink="http://www.w3.org/1999/xlink" width="28.891" height="28.891" viewBox="0 0 28.891 28.891"><defs><clipPath id="a"><rect width="28.891" height="28.891" transform="translate(0 0)" fill="none"/></clipPath></defs><g transform="translate(0 0)"><g clip-path="url(#a)"><path d="M28.689,1.3A2.232,2.232,0,0,0,25.731.2L9.431,7.651a3.6,3.6,0,0,0-1.78,1.78L.2,25.731A2.232,2.232,0,0,0,3.16,28.689l16.3-7.442a3.6,3.6,0,0,0,1.78-1.78l7.448-16.3a2.234,2.234,0,0,0,0-1.862M17,17.007A3.613,3.613,0,1,1,11.89,11.9h0A3.612,3.612,0,0,1,17,11.9h0a3.614,3.614,0,0,1,0,5.11" fill="#fff"/></g></g></svg>