<svg xmlns="http://www.w3.org/2000/svg" width="12" height="10.5" viewBox="0 0 12 10.5"><path d="M6,2.25c-3.314,0-6,2.182-6,4.875a4.327,4.327,0,0,0,1.336,3.063A5.963,5.963,0,0,1,.052,12.434a.186.186,0,0,0-.035.2.184.184,0,0,0,.171.113,5.36,5.36,0,0,0,3.3-1.2A7.148,7.148,0,0,0,6,12c3.314,0,6-2.182,6-4.875S9.314,2.25,6,2.25ZM3,7.875a.75.75,0,1,1,.75-.75A.749.749,0,0,1,3,7.875Zm3,0a.75.75,0,1,1,.75-.75A.749.749,0,0,1,6,7.875Zm3,0a.75.75,0,1,1,.75-.75A.749.749,0,0,1,9,7.875Z" transform="translate(0 -2.25)"/></svg>