<svg xmlns="http://www.w3.org/2000/svg" width="12" height="7.5" viewBox="0 0 12 7.5"><path d="M8.571,7.712a6.72,6.72,0,0,0-6,3.75,6.675,6.675,0,0,0,12,0A6.72,6.72,0,0,0,8.571,7.712ZM11.529,9.7a5.706,5.706,0,0,1,1.751,1.761,5.706,5.706,0,0,1-1.751,1.761,5.5,5.5,0,0,1-5.917,0,5.706,5.706,0,0,1-1.751-1.761A5.706,5.706,0,0,1,5.612,9.7c.046-.029.092-.058.139-.086a3,3,0,1,0,5.639,0l.139.086Zm-2.958.636A1.125,1.125,0,1,1,7.446,9.212,1.125,1.125,0,0,1,8.571,10.337Z" transform="translate(-2.571 -7.712)"/></svg>