<svg xmlns="http://www.w3.org/2000/svg" width="20.5" height="20" viewBox="0 0 20.5 20"><g transform="translate(-219 -15)"><g transform="translate(116 -110)"><path d="M8.959,5.235,6.191.622A1.281,1.281,0,0,0,5.092,0H.642A.641.641,0,0,0,.117,1.008L4.572,7.373A8.286,8.286,0,0,1,8.959,5.235ZM19.858,0h-4.45a1.281,1.281,0,0,0-1.1.622L11.541,5.235a8.289,8.289,0,0,1,4.387,2.137l4.455-6.364A.641.641,0,0,0,19.858,0ZM10.25,6.406Z" transform="translate(103 125)" fill="#1bacac"/></g><g transform="translate(116 -112)"><path d="M12.75,0,17,7.5,12.75,15H4.25L0,7.5,4.25,0Z" transform="translate(121 130) rotate(90)" fill="#26cbcb"/><path d="M9.75,0,13,5.5,9.75,11H3.25L0,5.5,3.25,0Z" transform="translate(119 132) rotate(90)" fill="#fff"/></g><path d="M11.894,9.023l0-.022a.277.277,0,0,0-.028-.079L10.482,6.7s-.176-.218-.218-.218H4.375L2.6,8.847l-.021.022,0,.01a.388.388,0,0,0-.037.076l-.007.021a.343.343,0,0,0,0,.207l.008.024a.368.368,0,0,0,.041.077L6.87,14.707l.009.012a.371.371,0,0,0,.082.076l.025.015a.441.441,0,0,0,.087.041l.024.008a.421.421,0,0,0,.232,0l.029-.01a.425.425,0,0,0,.085-.041l.019-.012a.339.339,0,0,0,.074-.068L11.822,9.3a.381.381,0,0,0,.072-.172l0-.028,0-.022-.005-.052ZM9.6,8.879l.61-1.1.61,1.1Zm-.366.654h1.448L8.264,12.59Zm-.358-.985-.881-1.2H9.532Zm-2.823.985H8.373L7.21,13.214Zm.231-.654L7.21,7.615l.931,1.264Zm-.656-.43-.4-1.1H6.431Zm.534,4.141L3.744,9.533H5.192ZM4.52,7.782l.344.933.06.164H3.712Z" transform="translate(222.295 16.355)" fill="#26cbcb"/></g></svg>