<svg xmlns="http://www.w3.org/2000/svg" width="14.094" height="14.094" viewBox="0 0 14.094 14.094"><g transform="translate(-107 -128)"><circle cx="5" cy="5" r="5" transform="translate(109 130)" fill="#fff"/><path d="M10.25,6.406A7.047,7.047,0,1,0,17.3,13.453,7.047,7.047,0,0,0,10.25,6.406Zm3.7,6.3-1.519,1.48.359,2.091a.46.46,0,0,1-.667.484l-1.878-.987-1.878.987a.46.46,0,0,1-.667-.484l.359-2.091L6.546,12.7a.46.46,0,0,1,.254-.784l2.1-.306.938-1.9a.461.461,0,0,1,.825,0l.938,1.9,2.1.306a.46.46,0,0,1,.254.784Z" transform="translate(103.797 121.594)" fill="#b28160"/></g></svg>