<svg xmlns="http://www.w3.org/2000/svg" width="20.5" height="20" viewBox="0 0 20.5 20"><g transform="translate(-156 -15)"><g transform="translate(53 -110)"><path d="M8.959,5.235,6.191.622A1.281,1.281,0,0,0,5.092,0H.642A.641.641,0,0,0,.117,1.008L4.572,7.373A8.286,8.286,0,0,1,8.959,5.235ZM19.858,0h-4.45a1.281,1.281,0,0,0-1.1.622L11.541,5.235a8.289,8.289,0,0,1,4.387,2.137l4.455-6.364A.641.641,0,0,0,19.858,0ZM10.25,6.406Z" transform="translate(103 125)" fill="#5726cb"/></g><g transform="translate(53 -112)"><path d="M12.75,0,17,7.5,12.75,15H4.25L0,7.5,4.25,0Z" transform="translate(121 130) rotate(90)" fill="#6666c5"/><path d="M9.75,0,13,5.5,9.75,11H3.25L0,5.5,3.25,0Z" transform="translate(119 132) rotate(90)" fill="#fff"/></g><path d="M7.535,6.394H1.6a.229.229,0,0,0-.228.228v.457a.229.229,0,0,0,.228.228H7.535a.229.229,0,0,0,.228-.228V6.622A.229.229,0,0,0,7.535,6.394Zm.913-4.567a.685.685,0,0,0-.685.685.671.671,0,0,0,.063.283l-1.033.619a.456.456,0,0,1-.631-.166L5,1.213a.685.685,0,1,0-.865,0L2.971,3.248a.456.456,0,0,1-.631.166L1.309,2.794a.685.685,0,1,0-.624.4.7.7,0,0,0,.11-.011L1.827,5.937h5.48L8.339,3.185a.7.7,0,0,0,.11.011.685.685,0,0,0,0-1.37Z" transform="translate(162 22.835)" fill="#6666c5"/></g></svg>