<svg xmlns="http://www.w3.org/2000/svg" width="20.5" height="20" viewBox="0 0 20.5 20"><g transform="translate(-103 -125)"><path d="M8.959,5.235,6.191.622A1.281,1.281,0,0,0,5.092,0H.642A.641.641,0,0,0,.117,1.008L4.572,7.373A8.286,8.286,0,0,1,8.959,5.235ZM19.858,0h-4.45a1.281,1.281,0,0,0-1.1.622L11.541,5.235a8.289,8.289,0,0,1,4.387,2.137l4.455-6.364A.641.641,0,0,0,19.858,0ZM10.25,6.406Z" transform="translate(103 125)" fill="#4791ba"/><g transform="translate(0 -2)"><path d="M12.75,0,17,7.5,12.75,15H4.25L0,7.5,4.25,0Z" transform="translate(121 130) rotate(90)" fill="#5fb0d8"/><path d="M9.75,0,13,5.5,9.75,11H3.25L0,5.5,3.25,0Z" transform="translate(119 132) rotate(90)" fill="#fff"/><g transform="translate(109.321 134.373)"><path d="M5.132.274,4.123,2.321,1.865,2.65a.5.5,0,0,0-.274.844L3.225,5.086,2.839,7.335a.494.494,0,0,0,.717.521l2.02-1.062L7.6,7.855a.5.5,0,0,0,.717-.521L7.927,5.086,9.56,3.494a.5.5,0,0,0-.274-.844L7.029,2.321,6.019.274a.5.5,0,0,0-.887,0Z" transform="translate(-1.441 0.001)" fill="#5fb0d8"/></g></g></g></svg>