<svg xmlns="http://www.w3.org/2000/svg" width="24" height="24" viewBox="0 0 24 24"><circle cx="12" cy="12" r="12" fill="#5726cb"/><path d="M8.776,9.3s.046-.032.119-.088a4.348,4.348,0,0,0,1.777-3.433c0-2.541-2.389-4.6-5.335-4.6S0,3.243,0,5.784s2.388,4.605,5.335,4.605a6.12,6.12,0,0,0,1.122-.1l.117-.02a5.554,5.554,0,0,0,2.8.885.286.286,0,0,0,.245-.491A5.4,5.4,0,0,1,8.776,9.3Zm-.65-2.013A3.449,3.449,0,0,1,5.345,8.577h-.02A3.454,3.454,0,0,1,2.544,7.292a.506.506,0,0,1-.121-.255.218.218,0,0,1,.2-.234H2.63a.28.28,0,0,1,.146.049,4.063,4.063,0,0,0,2.559.914A3.916,3.916,0,0,0,7.9,6.849.205.205,0,0,1,8.036,6.8a.214.214,0,0,1,.215.211.587.587,0,0,1-.119.286h0Z" transform="translate(7 5.819)" fill="#fff"/></svg>