<svg xmlns="http://www.w3.org/2000/svg" width="20" height="20" viewBox="0 0 20 20"><g transform="translate(-28.375 -564.375)"><g transform="translate(28.375 564.375)"><path d="M23.307,16.481a1.165,1.165,0,0,1,.159-.587,1.619,1.619,0,0,1,.1-.149A7.79,7.79,0,0,0,24.894,11.4a8.178,8.178,0,0,0-8.351-8.029A8.293,8.293,0,0,0,8.355,9.764a7.726,7.726,0,0,0-.178,1.644,8.155,8.155,0,0,0,8.221,8.13,9.9,9.9,0,0,0,2.269-.37c.543-.149,1.082-.346,1.221-.4a1.271,1.271,0,0,1,.447-.082,1.25,1.25,0,0,1,.486.1l2.726.966a.65.65,0,0,0,.188.048.383.383,0,0,0,.385-.385.618.618,0,0,0-.024-.13Z" transform="translate(-4.894 -3.375)"/><path d="M16.38,22.95c-.173.048-.394.1-.635.154a8.873,8.873,0,0,1-1.635.216,8.155,8.155,0,0,1-8.221-8.13,9.09,9.09,0,0,1,.072-1.029c.029-.207.063-.413.111-.615s.106-.433.168-.644l-.385.341a7.155,7.155,0,0,0-2.481,5.38,7.075,7.075,0,0,0,1.192,3.942c.111.168.173.3.154.385s-.572,2.981-.572,2.981a.386.386,0,0,0,.13.37.392.392,0,0,0,.245.087.345.345,0,0,0,.139-.029l2.7-1.062a.751.751,0,0,1,.577.01,8.091,8.091,0,0,0,2.918.577,7.551,7.551,0,0,0,5.774-2.649s.154-.212.332-.462C16.784,22.835,16.582,22.9,16.38,22.95Z" transform="translate(-3.375 -6.388)"/></g></g></svg>