<svg xmlns="http://www.w3.org/2000/svg" xmlns:xlink="http://www.w3.org/1999/xlink" width="46.272" height="35.246" viewBox="0 0 46.272 35.246"><defs><clipPath id="a"><rect width="46.272" height="35.246" fill="none"/></clipPath></defs><g transform="translate(0 0)" clip-path="url(#a)"><path d="M4.429,23.248H8.3V18.819H0a4.429,4.429,0,0,0,4.429,4.429" transform="translate(0 -8.249)" fill="#f75848"/><path d="M71.476,23.248H67.6V18.819h8.3a4.429,4.429,0,0,1-4.429,4.429" transform="translate(-29.633 -8.249)" fill="#f75848"/><path d="M42.483,0H15.631L13.506,9.7h31.1Z" transform="translate(-5.92 0)" fill="#fc6f58"/><path d="M12.368,17.261,10.91,23.917H44.928L43.47,17.261Z" transform="translate(-4.782 -7.567)" fill="#f75848"/><path d="M16.725,15.773,19.156,4.679H41.779L44.21,15.773Z" transform="translate(-7.331 -2.051)" fill="#b5f1f4"/><path d="M45.726,36.376H4.434V29.1a7,7,0,0,1,7-7h27.29a7,7,0,0,1,7,7Z" transform="translate(-1.944 -9.687)" fill="#fc6f58"/><path d="M17.439,31.076a3.449,3.449,0,1,1-3.449-3.449,3.449,3.449,0,0,1,3.449,3.449" transform="translate(-4.621 -12.11)" fill="#fff"/><path d="M59.564,31.076a3.449,3.449,0,1,0,3.449-3.449,3.449,3.449,0,0,0-3.449,3.449" transform="translate(-26.11 -12.11)" fill="#fff"/><rect width="43.019" height="4.021" transform="translate(1.627 24.763)" fill="#a5a5a5"/><path d="M15.6,57.711H12.38a1.837,1.837,0,0,1-1.837-1.837V51.249h6.9v4.625A1.837,1.837,0,0,1,15.6,57.711" transform="translate(-4.621 -22.465)" fill="#324a5e"/><path d="M61.4,57.711h3.224a1.837,1.837,0,0,0,1.837-1.837V51.249h-6.9v4.625A1.837,1.837,0,0,0,61.4,57.711" transform="translate(-26.11 -22.465)" fill="#324a5e"/><rect width="14.593" height="1.041" transform="translate(15.84 16.35)" fill="#f75848"/><rect width="14.593" height="1.041" transform="translate(15.84 18.445)" fill="#f75848"/><rect width="14.593" height="1.041" transform="translate(15.84 20.541)" fill="#f75848"/></g></svg>