<svg xmlns="http://www.w3.org/2000/svg" xmlns:xlink="http://www.w3.org/1999/xlink" width="46.936" height="46.936" viewBox="0 0 46.936 46.936"><defs><clipPath id="a"><rect width="46.936" height="46.936" fill="none"/></clipPath></defs><g transform="translate(0 0)"><rect width="11.755" height="52.42" transform="translate(0 9.869) rotate(-45)" fill="#e6f3ff"/><rect width="2.203" height="52.42" transform="translate(8.312 1.557) rotate(-45)" fill="#c7d6e0"/><rect width="6.236" height="1.401" transform="translate(6.428 8.494) rotate(-45)" fill="#324a5e"/><rect width="3.118" height="1.401" transform="matrix(0.707, -0.707, 0.707, 0.707, 11.153, 8.809)" fill="#324a5e"/><rect width="3.118" height="1.401" transform="translate(13.673 11.328) rotate(-45)" fill="#324a5e"/><rect width="3.118" height="1.401" transform="translate(16.192 13.848) rotate(-45)" fill="#324a5e"/><rect width="6.236" height="1.401" transform="translate(16.507 18.573) rotate(-45)" fill="#324a5e"/><rect width="3.118" height="1.401" transform="translate(21.232 18.887) rotate(-45)" fill="#324a5e"/><rect width="3.118" height="1.401" transform="translate(23.751 21.407) rotate(-45)" fill="#324a5e"/><rect width="3.118" height="1.401" transform="translate(26.271 23.927) rotate(-45)" fill="#324a5e"/><rect width="6.236" height="1.401" transform="translate(26.586 28.651) rotate(-45)" fill="#324a5e"/><rect width="3.118" height="1.401" transform="translate(31.31 28.966) rotate(-45)" fill="#324a5e"/><rect width="3.118" height="1.401" transform="translate(33.83 31.486) rotate(-45)" fill="#324a5e"/><rect width="3.118" height="1.401" transform="matrix(0.707, -0.707, 0.707, 0.707, 36.35, 34.006)" fill="#324a5e"/><rect width="6.236" height="1.401" transform="translate(36.665 38.73) rotate(-45)" fill="#324a5e"/><rect width="29.438" height="8.913" transform="translate(8.168 28.835) rotate(-45)" fill="#ffd15d"/><rect width="29.437" height="3.616" transform="translate(10.041 30.708) rotate(-45)" fill="#f9b54c"/><rect width="3.367" height="8.913" transform="translate(28.983 8.02) rotate(-45)" fill="#a5a5a5"/><g transform="translate(0 0)"><g transform="translate(0 0)" clip-path="url(#a)"><path d="M62.217,8.211,59.966,5.96a2.865,2.865,0,0,0-4.051,0l-1.83,1.83,6.3,6.3,1.83-1.83a2.865,2.865,0,0,0,0-4.051" transform="translate(-22.72 -2.151)" fill="#fc6f58"/><path d="M17.054,56.026l-6.3-6.3-4.6,6.993,3.912,3.912Z" transform="translate(-2.584 -20.888)" fill="#ffddca"/><path d="M4.112,61.781l-2.5,3.8A1.885,1.885,0,0,0,4.22,68.2l3.8-2.5Z" transform="translate(-0.545 -25.953)" fill="#324a5e"/></g></g></g></svg>