<svg xmlns="http://www.w3.org/2000/svg" xmlns:xlink="http://www.w3.org/1999/xlink" width="33" height="41.901" viewBox="0 0 33 41.901"><defs><clipPath id="a"><rect width="33" height="41.901" fill="none"/></clipPath></defs><g transform="translate(0 0)"><g transform="translate(0 0)" clip-path="url(#a)"><path d="M56.482,58.739a6.506,6.506,0,1,1-6.506-6.506,6.506,6.506,0,0,1,6.506,6.506" transform="translate(-24.463 -29.395)" fill="#935635"/><rect width="8.705" height="8.705" transform="translate(12.147 28.846)" fill="#ffd0b8"/><path d="M5.015,43.957h.523V37.264H5.015a3,3,0,0,0-3,3v.7a3,3,0,0,0,3,3" transform="translate(-1.135 -20.971)" fill="#ffd0b8"/><path d="M65.927,43.957H65.4V37.264h.523a3,3,0,0,1,3,3v.7a3,3,0,0,1-3,3" transform="translate(-36.807 -20.971)" fill="#ffd0b8"/><path d="M34.055,15.928V22.12a12.825,12.825,0,0,1-25.65,0V15.928c0-.093,0-.185.006-.272A12.827,12.827,0,0,1,23.836,3.37c.289.06.571.125.849.207a12.816,12.816,0,0,1,9.37,12.352" transform="translate(-4.73 -1.746)" fill="#ffddca"/><path d="M25.014,6.215a10.986,10.986,0,0,1-16.6,9.44A12.827,12.827,0,0,1,23.844,3.37c.289.059.571.125.849.206a10.829,10.829,0,0,1,.321,2.639" transform="translate(-4.737 -1.746)" fill="#935635"/><path d="M53.433,16.271v1.257A10.975,10.975,0,0,1,43.215,3.713c.289.06.571.125.849.207a12.816,12.816,0,0,1,9.37,12.352" transform="translate(-24.108 -2.089)" fill="#935635"/><path d="M25.906,44.891h0a.981.981,0,0,1-.981-.981v-1.09a.981.981,0,0,1,1.961,0v1.09a.981.981,0,0,1-.981.981" transform="translate(-14.027 -23.546)" fill="#324a5e"/><path d="M47.045,44.891h0a.981.981,0,0,0,.981-.981v-1.09a.981.981,0,1,0-1.961,0v1.09a.981.981,0,0,0,.981.981" transform="translate(-25.923 -23.546)" fill="#324a5e"/><path d="M34.9,51.94a2.2,2.2,0,1,1,0-4.4.423.423,0,1,1,0,.846,1.356,1.356,0,1,0,0,2.712.423.423,0,1,1,0,.846" transform="translate(-18.403 -26.751)" fill="#ffb392"/><path d="M32.842,63.755c-2.168,0-3.8-.841-3.8-1.957a.423.423,0,0,1,.846,0c0,.453,1.152,1.111,2.957,1.111S35.8,62.252,35.8,61.8a.423.423,0,0,1,.846,0c0,1.115-1.635,1.957-3.8,1.957" transform="translate(-16.342 -34.54)" fill="#ffb392"/><path d="M26.69,81.9l-4.352-3.093-4.231,2.756,5.2,4.686Z" transform="translate(-10.19 -44.351)" fill="#ffd15d"/><path d="M37.737,81.9l4.353-3.093,4.23,2.756-5.2,4.686Z" transform="translate(-21.237 -44.351)" fill="#ffd15d"/><path d="M3.212,42.491H4.6V30.4H3.212A3.212,3.212,0,0,0,0,33.613v5.666a3.212,3.212,0,0,0,3.212,3.212" transform="translate(0 -17.108)" fill="#324a5e"/><path d="M66.341,42.491H64.953V30.4h1.388a3.212,3.212,0,0,1,3.212,3.212v5.666a3.212,3.212,0,0,1-3.212,3.212" transform="translate(-36.553 -17.108)" fill="#324a5e"/><path d="M32.871,14.139a.846.846,0,0,1-.846-.846,11.613,11.613,0,0,0-11.6-11.6H19.006a11.613,11.613,0,0,0-11.6,11.6.846.846,0,0,1-1.692,0A13.308,13.308,0,0,1,19.006,0h1.418A13.308,13.308,0,0,1,33.717,13.292a.846.846,0,0,1-.846.846" transform="translate(-3.216 0)" fill="#324a5e"/><path d="M50.653,63.778H48.529a.846.846,0,1,1,0-1.692h2.124a5.129,5.129,0,0,0,5.123-5.124.846.846,0,0,1,1.693,0,6.824,6.824,0,0,1-6.816,6.816" transform="translate(-26.834 -31.58)" fill="#324a5e"/><path d="M49.029,69.065a2.05,2.05,0,1,1-2.05-2.05,2.05,2.05,0,0,1,2.05,2.05" transform="translate(-25.284 -37.713)" fill="#324a5e"/></g></g></svg>