<svg xmlns="http://www.w3.org/2000/svg" xmlns:xlink="http://www.w3.org/1999/xlink" width="49" height="38.399" viewBox="0 0 49 38.399"><defs><clipPath id="a"><rect width="49" height="38.399" fill="none"/></clipPath></defs><g transform="translate(0 0)"><g transform="translate(0 0)" clip-path="url(#a)"><path d="M16.969,26.249V40.087a19.074,19.074,0,0,1,13.486,5.586L31.5,46.719V26.249Z" transform="translate(-8.06 -12.469)" fill="#3a5466"/><path d="M44.649,26.249v20.47l1.046-1.046a19.074,19.074,0,0,1,13.486-5.586V26.249Z" transform="translate(-21.208 -12.469)" fill="#243342"/><path d="M46.881,10.026,23.44,20.052,0,10.026,23.44,0Z" transform="translate(0 0)" fill="#324a5e"/><path d="M44.866,18c0,.667-1.022,1.208-2.282,1.208S40.3,18.671,40.3,18,41.324,16.8,42.584,16.8s2.282.541,2.282,1.208" transform="translate(-19.144 -7.978)" fill="#fc6f58"/><path d="M0,19.1,23.441,29.123,46.881,19.1v2.116L23.441,31.239,0,21.214Z" transform="translate(0 -9.071)" fill="#2b3b4e"/><path d="M44.649,19.1H68.089V38.192" transform="translate(-21.208 -9.071)" fill="none" stroke="#fc6f58" stroke-linecap="round" stroke-linejoin="round" stroke-width="2"/><path d="M88.815,55.1a2.12,2.12,0,1,0-2.871,0,2.105,2.105,0,0,0-.684,1.551v6.177H89.5V56.652a2.109,2.109,0,0,0-.684-1.551" transform="translate(-40.499 -24.43)" fill="#fc6f58"/><path d="M90.261,55.1a2.1,2.1,0,0,1,.682,1.554v6.174H89.9V56.654a2.1,2.1,0,0,0-.682-1.554,2.111,2.111,0,0,0-.913-3.6,1.909,1.909,0,0,1,.52-.068,2.122,2.122,0,0,1,2.121,2.121,2.1,2.1,0,0,1-.682,1.549" transform="translate(-41.944 -24.43)" fill="#f75848"/><path d="M87.772,55.161a2.1,2.1,0,0,1,.683,1.554v6.174H85.263V56.715a2.1,2.1,0,0,1,.683-1.554,2.1,2.1,0,0,1-.683-1.549,2.119,2.119,0,0,1,1.6-2.053,2.111,2.111,0,0,1,.913,3.6" transform="translate(-40.5 -24.491)" fill="#fc6f58"/></g></g></svg>