<svg xmlns="http://www.w3.org/2000/svg" xmlns:xlink="http://www.w3.org/1999/xlink" width="51.268" height="35.093" viewBox="0 0 51.268 35.093"><defs><clipPath id="a"><rect width="51.268" height="35.093" fill="none"/></clipPath></defs><rect width="47.289" height="31.693" transform="translate(1.99 0)" fill="#935635"/><path d="M8.892,31.028H50.164V5.352Z" transform="translate(-3.894 -2.344)" fill="#7ace91"/><path d="M8.892,5.352V31.029L50.164,5.352Z" transform="translate(-3.894 -2.344)" fill="#90dfaa"/><rect width="51.268" height="3.4" transform="translate(0 31.693)" fill="#935635"/><rect width="47.289" height="1.755" transform="translate(1.99 29.938)" fill="#7f452b"/><rect width="12.49" height="3.008" transform="translate(7.383 28.684)" fill="#fff"/><path d="M18.4,20.043H21.48v9.335H20.262V21.262H18.4Z" transform="translate(-8.057 -8.778)" fill="#fff"/><path d="M28.48,28.474v-2.49H25.99V24.764h2.49v-2.49H29.7v2.49h2.49v1.219H29.7v2.49Z" transform="translate(-11.382 -9.755)" fill="#fff"/><g transform="translate(0 0)"><g clip-path="url(#a)"><path d="M42.308,24.02a1.306,1.306,0,0,0,.993-.452,1.474,1.474,0,0,0,.418-1.027A1.425,1.425,0,0,0,43.3,21.5a1.342,1.342,0,0,0-.993-.427H38.93V19.858h3.378a2.6,2.6,0,0,1,2.429,1.619,2.768,2.768,0,0,1,.2,1.063,2.941,2.941,0,0,1-.2,1.062,2.457,2.457,0,0,1-.549.87,2.586,2.586,0,0,1-.853.567,2.686,2.686,0,0,1-1.027.2H40.114v2.839H44.4V29.3h-5.5V24.02Z" transform="translate(-17.034 -8.697)" fill="#fff"/><path d="M53.547,28.474v-2.49h-2.49V24.764h2.49v-2.49h1.219v2.49h2.49v1.219h-2.49v2.49Z" transform="translate(-22.36 -9.755)" fill="#fff"/><path d="M63.559,19.734h3.03a2.673,2.673,0,0,1,1.027.2,2.37,2.37,0,0,1,1.4,1.411,2.886,2.886,0,0,1,.2,1.088,3.02,3.02,0,0,1-.2,1.106,2.518,2.518,0,0,1-.567.88,2,2,0,0,1-.174.157l.174.174a2.358,2.358,0,0,1,.567.862,3.027,3.027,0,0,1,.2,1.106,2.889,2.889,0,0,1-.2,1.089,2.513,2.513,0,0,1-.549.845,2.588,2.588,0,0,1-.854.567,2.694,2.694,0,0,1-1.027.2h-3.03V28.2h3.03a1.34,1.34,0,0,0,.993-.427A1.446,1.446,0,0,0,68,26.717a1.5,1.5,0,0,0-.418-1.07,1.445,1.445,0,0,0-.993-.479H64.081V23.948h2.508a1.316,1.316,0,0,0,.993-.444A1.507,1.507,0,0,0,68,22.433a1.446,1.446,0,0,0-.418-1.053,1.342,1.342,0,0,0-.993-.427h-3.03Z" transform="translate(-27.836 -8.643)" fill="#fff"/></g></g></svg>