<svg xmlns="http://www.w3.org/2000/svg" xmlns:xlink="http://www.w3.org/1999/xlink" width="39.48" height="45.34" viewBox="0 0 39.48 45.34"><defs><clipPath id="a"><rect width="39.48" height="45.34" fill="none"/></clipPath></defs><g transform="translate(0 0)"><rect width="6.06" height="14.883" transform="translate(5.309 8.808)" fill="#f75848"/><path d="M10.986,35.051V53.77H25.417V21.982Z" transform="translate(-5.677 -11.359)" fill="#fff"/><path d="M40.848,53.77H55.279V35.05L40.848,21.981Z" transform="translate(-21.108 -11.359)" fill="#e6f3ff"/><g transform="translate(0 0)"><g clip-path="url(#a)"><path d="M59.952,28.49l-19.1-17.3V16.4l14.43,13.069,2.078,1.882a1.933,1.933,0,0,0,2.6-2.866" transform="translate(-21.108 -5.782)" fill="#f75848"/><path d="M.636,28.49a1.933,1.933,0,0,0,2.6,2.866L5.31,29.474,19.74,16.4V11.189Z" transform="translate(0 -5.782)" fill="#fc6f58"/><path d="M20.646,71.165a.829.829,0,0,1,.746-1.4l.452.089a3.552,3.552,0,0,0,3.2-.976l1.687-1.687a.829.829,0,1,1,1.173,1.173L26.22,70.051a5.209,5.209,0,0,1-4.7,1.43l-.452-.089a.827.827,0,0,1-.426-.227" transform="translate(-10.543 -34.595)" fill="#7ace91"/><path d="M35.1,47.93c-3.233,3.233-2.129,9.579-2.129,9.579L44.674,45.8S38.328,44.7,35.1,47.93" transform="translate(-16.941 -23.574)" fill="#90dfaa"/><path d="M44.869,46,33.161,57.7s6.346,1.1,9.579-2.129S44.869,46,44.869,46" transform="translate(-17.136 -23.768)" fill="#7ace91"/><path d="M38.1,90.691H4.012a1.464,1.464,0,0,1,0-2.929H38.1a1.464,1.464,0,0,1,0,2.929" transform="translate(-1.317 -45.351)" fill="#935635"/><path d="M18.351,0a2.017,2.017,0,0,0-1.974,2.431A2.016,2.016,0,1,0,17.936,3.99,2.017,2.017,0,1,0,18.351,0" transform="translate(-7.207 0)" fill="#fff"/></g></g></g></svg>