<svg xmlns="http://www.w3.org/2000/svg" xmlns:xlink="http://www.w3.org/1999/xlink" width="47.126" height="46.621" viewBox="0 0 47.126 46.621"><defs><clipPath id="a"><rect width="47.126" height="46.621" transform="translate(0 0)" fill="none"/></clipPath></defs><g transform="translate(2 3.004)"><g transform="translate(-2 -3.004)" clip-path="url(#a)"><path d="M1618.111.644l14.511,14.5a2.217,2.217,0,0,1,0,3.105l-6.253,6.229a2.189,2.189,0,0,1-3.108,0l-14.511-14.5a2.183,2.183,0,0,1,0-3.105l6.235-6.229a2.21,2.21,0,0,1,3.127,0" transform="translate(-1586.132 0.004)" fill="#40494c" fill-rule="evenodd"/><path d="M1627.638,428.16l-1.269,1.249a2.189,2.189,0,0,1-3.108,0l-14.511-14.5a2.183,2.183,0,0,1,0-3.105l1.269-1.268c-.515.514-.239,1.617.625,2.48l14.512,14.5c.864.864,1.986,1.139,2.483.643" transform="translate(-1586.132 -404.93)" fill="#2c3439" fill-rule="evenodd"/><path d="M2036.686,19.513l1.269-1.268a2.217,2.217,0,0,0,0-3.105L2023.444.643a2.211,2.211,0,0,0-3.127,0l-1.269,1.249c.515-.5,1.637-.22,2.483.643l14.511,14.5c.865.845,1.159,1.966.644,2.481" transform="translate(-1991.464 0.005)" fill="#4d575b" fill-rule="evenodd"/><path d="M111.135,1155.64c.478.478.975.955,1.453,1.452.5.478.975.974,1.471,1.451-2.832,3.013-6.051,6.45-9.73,10.382-4.285,4.575-9.343,9.959-15.376,16.39a1.409,1.409,0,0,1-2,.092c-.441-.459-.9-.9-1.343-1.36-.46-.441-.9-.9-1.361-1.342a1.405,1.405,0,0,1,.092-2c6.437-6.027,11.845-11.061,16.406-15.361,3.954-3.675,7.375-6.891,10.392-9.7" transform="translate(-82.723 -1139.852)" fill="#fcc900" fill-rule="evenodd"/><path d="M1139.283,1970.291l-4.175,4.465-.552-7.129,1.067-.992Z" transform="translate(-1119.056 -1939.767)" fill="#f7a000" fill-rule="evenodd"/><path d="M1957.467,1155.64c.478.478.975.955,1.453,1.452.5.478.975.974,1.471,1.451l-4.028,4.3-.588-5.623Z" transform="translate(-1929.056 -1139.852)" fill="#f7a000" fill-rule="evenodd"/><path d="M1963.381,2409.121l9.748,9.114a1.245,1.245,0,0,1,.073,1.8c-.4.4-.827.809-1.232,1.213-.4.422-.81.827-1.214,1.231a1.248,1.248,0,0,1-1.8-.074l-9.141-9.738Z" transform="translate(-1933.038 -2376.208)" fill="#fcc900" fill-rule="evenodd"/><path d="M1963.381,2409.121l3.421,3.2-5.536,1.892-1.453-1.543Z" transform="translate(-1933.038 -2376.208)" fill="#f7a000" fill-rule="evenodd"/><rect width="6.551" height="1.3" transform="translate(25.322 36.073) rotate(-44.972)" fill="#fcc900"/><rect width="2.002" height="4.03" transform="translate(24.091 31.625) rotate(-44.97)" fill="#ebebeb"/><path d="M.4,452.486l2.207-2.2a1.411,1.411,0,0,1,1.968,0L25.91,471.595a1.408,1.408,0,0,1,0,1.966l-2.207,2.2a1.411,1.411,0,0,1-1.968,0L.4,454.452a1.408,1.408,0,0,1,0-1.966" transform="translate(0 -443.735)" fill="#ebebeb" fill-rule="evenodd"/><path d="M94.1,449.83a1.334,1.334,0,0,1,.975-.22l-1.821,6.119-.7-.7Zm2,.4.7.7-1.931,6.413-.7-.7Zm1.619,1.617.7.7-1.913,6.431-.7-.7Zm1.637,1.635.7.7L98.126,460.6l-.7-.7Zm1.619,1.617.7.7-1.913,6.431-.7-.7Zm1.637,1.635.7.7-1.931,6.413-.7-.68Zm1.619,1.617.7.7-1.913,6.431-.7-.7Zm1.637,1.635.7.7-1.931,6.431-.7-.7Zm1.619,1.635.7.68-1.913,6.431-.7-.7Zm1.637,1.617.7.7-1.931,6.431-.68-.7Zm1.619,1.635.7.7-1.913,6.413-.7-.7Zm1.637,1.617.7.7-1.931,6.431-.681-.7ZM114,468.131l.7.7-1.913,6.413-.7-.7Zm1.637,1.617.7.7-1.563,5.2a1.27,1.27,0,0,1-.956.221Z" transform="translate(-91.289 -443.45)" fill="#d8d9d9" fill-rule="evenodd"/><path d="M1763.918,2213.494l1.821-1.011-1.067-1.065-1.416,1.415Z" transform="translate(-1739.167 -2181.206)" fill="#d8d9d9" fill-rule="evenodd"/></g></g></svg>