<svg xmlns="http://www.w3.org/2000/svg" xmlns:xlink="http://www.w3.org/1999/xlink" width="40.254" height="31.971" viewBox="0 0 40.254 31.971"><defs><clipPath id="a"><rect width="40.254" height="31.971" fill="none"/></clipPath></defs><g transform="translate(0 0)"><g transform="translate(0 0)" clip-path="url(#a)"><path d="M48.723,8.872H32.858V35.409H48.723a4.262,4.262,0,0,0,4.262-4.262V13.134a4.262,4.262,0,0,0-4.262-4.262" transform="translate(-12.731 -3.438)" fill="#2b3b4e"/><path d="M9.013,8.872H4.262A4.262,4.262,0,0,0,0,13.134V31.147a4.262,4.262,0,0,0,4.262,4.262H20.127V8.872Z" transform="translate(0 -3.438)" fill="#324a5e"/><path d="M43.972,5.435,40.2,0H32.858V5.435Z" transform="translate(-12.731 0)" fill="#2b3b4e"/><path d="M25.828,0H18.486L14.714,5.435H25.828Z" transform="translate(-5.701 0)" fill="#324a5e"/><path d="M26.169,13.269A10.576,10.576,0,1,0,36.744,23.845,10.576,10.576,0,0,0,26.169,13.269m0,17.827a7.251,7.251,0,1,1,7.251-7.251A7.251,7.251,0,0,1,26.169,31.1" transform="translate(-6.042 -5.141)" fill="#a5a5a5"/><path d="M27.843,17.59a7.929,7.929,0,1,0,7.928,7.929,7.929,7.929,0,0,0-7.928-7.929" transform="translate(-7.716 -6.816)" fill="#e6f3ff"/><path d="M58.6,18.479a1.444,1.444,0,1,1-1.444-1.444A1.445,1.445,0,0,1,58.6,18.479" transform="translate(-21.587 -6.601)" fill="#f75848"/></g></g></svg>