<svg xmlns="http://www.w3.org/2000/svg" xmlns:xlink="http://www.w3.org/1999/xlink" width="40.336" height="42.398" viewBox="0 0 40.336 42.398"><defs><clipPath id="a"><rect width="40.336" height="42.398" fill="none"/></clipPath></defs><g transform="translate(0 0)"><g transform="translate(0 0)" clip-path="url(#a)"><path d="M9.459.006A9.97,9.97,0,0,0,0,10.052,18.34,18.34,0,0,0,5.912,23.539L19.633,36.182V9.816A9.816,9.816,0,0,0,9.459.006" transform="translate(0 0)" fill="#fc6f58"/><path d="M44.442.006A9.97,9.97,0,0,1,53.9,10.052a18.34,18.34,0,0,1-5.912,13.487L34.268,36.182V9.816A9.816,9.816,0,0,1,44.442.006" transform="translate(-14.634 0)" fill="#f75848"/><path d="M63.3,33.477A1.828,1.828,0,0,0,61.3,35.3a1.828,1.828,0,1,0-3.655,0V51.288h4.547a17.189,17.189,0,0,0,2.764-9.348V35.375a1.881,1.881,0,0,0-1.648-1.9" transform="translate(-24.616 -14.293)" fill="#ededed"/><rect width="6.749" height="5.402" transform="translate(33.024 36.995)" fill="#7ace91"/><rect width="6.749" height="5.402" transform="translate(26.275 36.995)" fill="#90dfaa"/><path d="M45.033,26.678a1.828,1.828,0,0,0-1.828,1.828V19.474a1.881,1.881,0,0,0-1.648-1.9A1.828,1.828,0,0,0,39.55,19.4V35.062l-3.955-3.955a1.9,1.9,0,0,0-2.587-.14,1.828,1.828,0,0,0-.071,2.653L42.314,44.5h4.547V28.505a1.828,1.828,0,0,0-1.828-1.828" transform="translate(-13.837 -7.502)" fill="#fff"/></g></g></svg>