<svg xmlns="http://www.w3.org/2000/svg" xmlns:xlink="http://www.w3.org/1999/xlink" width="24" height="24" viewBox="0 0 24 24"><defs><clipPath id="a"><rect width="13.097" height="8.611" transform="translate(0 0)" fill="none"/></clipPath></defs><g transform="translate(-31 -598)"><rect width="24" height="24" rx="12" transform="translate(31 598)" fill="#5726cb"/><g transform="translate(36 606)"><g clip-path="url(#a)"><path d="M6.476,4.294c-.54,1.522-1.02,2.926-1.523,4.317a6.892,6.892,0,0,0-1.115-.084,7.275,7.275,0,0,0-1.044.06C2.351,7.088.359.9,0,.06.695.1.768.1,1.379.1A12.093,12.093,0,0,0,3,0c.132.54.78,2.734,1.559,5.085C5.085,3.514,5.8,1.176,6.068.06a5.285,5.285,0,0,0,.7.036c.384,0,.8-.024,1.055-.048.133.54.78,2.7,1.559,5.037A47.063,47.063,0,0,0,10.89.06a9.113,9.113,0,0,0,1.2.06A7.12,7.12,0,0,0,13.1.06c-1.44,3.454-2.328,5.865-3.335,8.54a8.531,8.531,0,0,0-1.067-.073,5.712,5.712,0,0,0-.887.06c-.216-.72-.768-2.519-1.332-4.293" fill="#fff"/></g></g></g></svg>